<svg width="1024" height="1024" viewBox="0 0 1024 1024" xmlns="http://www.w3.org/2000/svg">
  <defs>
    <linearGradient id="bg" x1="0" y1="0" x2="1" y2="1">
      <stop offset="0" stop-color="#10231a" />
      <stop offset="1" stop-color="#0b0f14" />
    </linearGradient>
  </defs>
  <rect width="1024" height="1024" rx="230" fill="url(#bg)" />
  <g transform="translate(512 512) scale(5.2)">
    <path fill="#24A148" d="M46.1,-55.3C53.2,-48.9,48,-28.2,44,-13.3C40,1.6,37.3,10.8,31.8,16.7C26.4,22.5,18.2,25.2,8.6,32.4C-0.9,39.7,-12,51.5,-26.7,54.4C-41.4,57.3,-59.8,51.2,-60.3,39.9C-60.9,28.5,-43.7,11.9,-40.1,-6.8C-36.5,-25.6,-46.5,-46.5,-42.1,-53.3C-37.7,-60.2,-18.9,-52.9,0.3,-53.2C19.5,-53.6,38.9,-61.6,46.1,-55.3Z" />
  </g>
</svg>
